# xmcd
#
# Track frame offsets:
#	150
#	27735
#	47992
#	66767
#	86555
#	103125
#	121665
#	136620
#	153832
#	174595
#	193562
#	224750
#	244765
#
# Disc length: 3501 seconds
#
# Revision: 0
# Processed by: cddbd v1.5.1PL0 Copyright (c) Steve Scherf et al.
# Submitted via: audiograbber 1.82.02
#
DISCID=b60dab0d
DTITLE=Embrace - Fireworks (Singles 1997-2002)
DYEAR=2002
DGENRE=Indie
TTITLE0=All You Good Good People
TTITLE1=You're Not Alone
TTITLE2=Come Back To What You Know
TTITLE3=Make It Last
TTITLE4=3 Is A Magic Number
TTITLE5=One Big Family
TTITLE6=My Weakness Is None Of Your Business
TTITLE7=I Wouldn't Wanna Happen To You
TTITLE8=Save Me
TTITLE9=Hooligan
TTITLE10=The Good Will Out
TTITLE11=Wonder
TTITLE12=Fireworks
EXTD=UPC 724381208328\n
EXTT0=
EXTT1=
EXTT2=
EXTT3=
EXTT4=
EXTT5=
EXTT6=
EXTT7=
EXTT8=
EXTT9=
EXTT10=
EXTT11=
EXTT12=
PLAYORDER=
